<svg width="608" height="308" viewBox="0 0 608 308" fill="none" xmlns="http://www.w3.org/2000/svg">
<circle cx="304" cy="100" r="98" stroke="white" stroke-width="4"/>
<g filter="url(#filter0_d_66_568)">
<circle cx="305.5" cy="99.5" r="49" stroke="white" stroke-width="5" shape-rendering="crispEdges"/>
</g>
<g filter="url(#filter1_d_66_568)">
<circle cx="305.5" cy="99.5" r="36.5" fill="white"/>
</g>
<path d="M4.992 293V248.2H19.072C22.528 248.2 25.3867 248.776 27.648 249.928C29.9093 251.037 31.5733 252.573 32.64 254.536C33.7067 256.456 34.24 258.653 34.24 261.128C34.24 263.56 33.7067 265.757 32.64 267.72C31.5733 269.683 29.9093 271.24 27.648 272.392C25.4293 273.544 22.5707 274.12 19.072 274.12H9.472V293H4.992ZM9.472 270.28H19.008C22.848 270.28 25.5787 269.469 27.2 267.848C28.8213 266.184 29.632 263.944 29.632 261.128C29.632 258.227 28.8213 255.987 27.2 254.408C25.5787 252.787 22.848 251.976 19.008 251.976H9.472V270.28ZM58.294 293V260.744H62.39L62.71 266.952C63.3927 265.459 64.31 264.2 65.462 263.176C66.614 262.152 68.0007 261.363 69.622 260.808C71.2433 260.253 73.078 259.976 75.126 259.976V264.648H73.398C72.0327 264.648 70.71 264.84 69.43 265.224C68.15 265.565 67.0193 266.163 66.038 267.016C65.0567 267.869 64.2673 269.021 63.67 270.472C63.0727 271.923 62.774 273.736 62.774 275.912V293H58.294ZM111.252 293.768C108.308 293.768 105.641 293.085 103.252 291.72C100.905 290.312 99.0493 288.349 97.684 285.832C96.3187 283.272 95.636 280.307 95.636 276.936C95.636 273.437 96.3187 270.429 97.684 267.912C99.092 265.395 100.991 263.453 103.38 262.088C105.769 260.68 108.436 259.976 111.38 259.976C114.452 259.976 117.161 260.68 119.508 262.088C121.855 263.453 123.711 265.395 125.076 267.912C126.441 270.429 127.124 273.437 127.124 276.936C127.124 280.307 126.42 283.272 125.012 285.832C123.647 288.349 121.769 290.312 119.38 291.72C117.033 293.085 114.324 293.768 111.252 293.768ZM111.316 289.928C113.321 289.928 115.156 289.437 116.82 288.456C118.527 287.475 119.892 286.024 120.916 284.104C121.983 282.141 122.516 279.731 122.516 276.872C122.516 273.971 122.004 271.56 120.98 269.64C119.956 267.72 118.591 266.291 116.884 265.352C115.22 264.371 113.385 263.88 111.38 263.88C109.46 263.88 107.647 264.371 105.94 265.352C104.233 266.333 102.847 267.784 101.78 269.704C100.756 271.581 100.244 273.971 100.244 276.872C100.244 279.731 100.756 282.141 101.78 284.104C102.804 286.024 104.148 287.475 105.812 288.456C107.519 289.437 109.353 289.928 111.316 289.928ZM151.794 307.08V260.744H155.89L156.274 266.568C156.957 265.416 157.853 264.349 158.962 263.368C160.071 262.344 161.394 261.533 162.93 260.936C164.509 260.296 166.301 259.976 168.306 259.976C171.421 259.976 174.13 260.723 176.434 262.216C178.781 263.709 180.594 265.736 181.874 268.296C183.154 270.813 183.794 273.693 183.794 276.936C183.794 280.179 183.133 283.08 181.81 285.64C180.53 288.157 178.738 290.141 176.434 291.592C174.13 293.043 171.399 293.768 168.242 293.768C165.511 293.768 163.101 293.192 161.01 292.04C158.962 290.845 157.383 289.181 156.274 287.048V307.08H151.794ZM167.922 289.864C170.141 289.864 172.082 289.331 173.746 288.264C175.453 287.197 176.797 285.704 177.778 283.784C178.759 281.821 179.25 279.517 179.25 276.872C179.25 274.269 178.759 271.987 177.778 270.024C176.797 268.061 175.453 266.547 173.746 265.48C172.082 264.413 170.141 263.88 167.922 263.88C165.703 263.88 163.719 264.413 161.97 265.48C160.263 266.547 158.919 268.061 157.938 270.024C156.999 271.944 156.53 274.227 156.53 276.872C156.53 279.475 156.999 281.757 157.938 283.72C158.919 285.683 160.263 287.197 161.97 288.264C163.719 289.331 165.703 289.864 167.922 289.864ZM208.482 293V246.92H212.962V266.504C214.071 264.456 215.607 262.856 217.57 261.704C219.532 260.552 221.687 259.976 224.034 259.976C226.466 259.976 228.578 260.467 230.37 261.448C232.204 262.429 233.612 263.923 234.594 265.928C235.618 267.933 236.13 270.493 236.13 273.608V293H231.714V274.12C231.714 270.664 230.988 268.104 229.538 266.44C228.13 264.733 226.039 263.88 223.266 263.88C221.346 263.88 219.596 264.349 218.018 265.288C216.482 266.227 215.244 267.592 214.306 269.384C213.41 271.133 212.962 273.309 212.962 275.912V293H208.482ZM275.431 293.768C272.444 293.768 269.799 293.064 267.495 291.656C265.233 290.248 263.441 288.285 262.119 285.768C260.839 283.208 260.199 280.221 260.199 276.808C260.199 273.395 260.839 270.429 262.119 267.912C263.399 265.395 265.191 263.453 267.495 262.088C269.841 260.68 272.529 259.976 275.559 259.976C278.673 259.976 281.297 260.68 283.431 262.088C285.607 263.496 287.249 265.331 288.359 267.592C289.511 269.853 290.087 272.328 290.087 275.016C290.087 275.443 290.087 275.891 290.087 276.36C290.087 276.787 290.065 277.299 290.023 277.896H263.591V274.12H285.735C285.649 270.835 284.625 268.296 282.663 266.504C280.743 264.712 278.311 263.816 275.367 263.816C273.447 263.816 271.655 264.264 269.991 265.16C268.369 266.013 267.047 267.293 266.023 269C265.041 270.664 264.551 272.776 264.551 275.336V277C264.551 279.901 265.063 282.312 266.087 284.232C267.111 286.152 268.455 287.581 270.119 288.52C271.825 289.459 273.596 289.928 275.431 289.928C277.863 289.928 279.868 289.395 281.447 288.328C283.025 287.219 284.156 285.704 284.839 283.784H289.255C288.7 285.661 287.804 287.368 286.567 288.904C285.372 290.44 283.836 291.635 281.959 292.488C280.081 293.341 277.905 293.768 275.431 293.768ZM325.393 293C323.558 293 321.98 292.723 320.657 292.168C319.334 291.571 318.31 290.611 317.585 289.288C316.902 287.923 316.561 286.067 316.561 283.72V264.584H310.929V260.744H316.561L317.201 253.256H321.041V260.808H330.705V264.584H321.041V283.72C321.041 285.853 321.468 287.304 322.321 288.072C323.174 288.797 324.689 289.16 326.865 289.16H330.193V293H325.393ZM355.309 293V260.744H359.725V293H355.309ZM357.549 253.128C356.653 253.128 355.885 252.829 355.245 252.232C354.605 251.592 354.285 250.803 354.285 249.864C354.285 248.883 354.584 248.115 355.181 247.56C355.821 246.963 356.589 246.664 357.485 246.664C358.381 246.664 359.149 246.963 359.789 247.56C360.429 248.115 360.749 248.883 360.749 249.864C360.749 250.803 360.429 251.592 359.789 252.232C359.192 252.829 358.445 253.128 357.549 253.128ZM400.69 293.768C397.703 293.768 395.036 293.064 392.69 291.656C390.343 290.248 388.487 288.285 387.122 285.768C385.756 283.208 385.074 280.264 385.074 276.936C385.074 273.48 385.756 270.515 387.122 268.04C388.487 265.523 390.343 263.56 392.69 262.152C395.079 260.701 397.746 259.976 400.69 259.976C404.444 259.976 407.559 260.957 410.034 262.92C412.551 264.84 414.151 267.4 414.833 270.6H410.354C409.884 268.467 408.754 266.824 406.962 265.672C405.212 264.477 403.1 263.88 400.626 263.88C398.706 263.88 396.914 264.371 395.25 265.352C393.586 266.291 392.242 267.72 391.218 269.64C390.194 271.56 389.682 273.992 389.682 276.936C389.682 279.112 389.98 281.011 390.578 282.632C391.175 284.253 391.986 285.619 393.01 286.728C394.034 287.795 395.207 288.605 396.53 289.16C397.852 289.715 399.218 289.992 400.626 289.992C402.247 289.992 403.719 289.736 405.042 289.224C406.407 288.669 407.559 287.88 408.498 286.856C409.436 285.832 410.055 284.595 410.354 283.144H414.833C414.194 286.259 412.615 288.819 410.098 290.824C407.58 292.787 404.444 293.768 400.69 293.768ZM474.617 293V248.2H501.817V251.912H479.097V268.616H499.897V272.328H479.097V289.288H501.817V293H474.617ZM530.435 307.08L538.371 289.416H536.643L523.907 260.744H528.771L539.779 286.344L551.363 260.744H555.971L535.107 307.08H530.435ZM589.618 293.768C586.631 293.768 583.986 293.064 581.682 291.656C579.421 290.248 577.629 288.285 576.306 285.768C575.026 283.208 574.386 280.221 574.386 276.808C574.386 273.395 575.026 270.429 576.306 267.912C577.586 265.395 579.378 263.453 581.682 262.088C584.029 260.68 586.717 259.976 589.746 259.976C592.861 259.976 595.485 260.68 597.618 262.088C599.794 263.496 601.437 265.331 602.546 267.592C603.698 269.853 604.274 272.328 604.274 275.016C604.274 275.443 604.274 275.891 604.274 276.36C604.274 276.787 604.253 277.299 604.21 277.896H577.778V274.12H599.922C599.837 270.835 598.813 268.296 596.85 266.504C594.93 264.712 592.498 263.816 589.554 263.816C587.634 263.816 585.842 264.264 584.178 265.16C582.557 266.013 581.234 267.293 580.21 269C579.229 270.664 578.738 272.776 578.738 275.336V277C578.738 279.901 579.25 282.312 580.274 284.232C581.298 286.152 582.642 287.581 584.306 288.52C586.013 289.459 587.783 289.928 589.618 289.928C592.05 289.928 594.055 289.395 595.634 288.328C597.213 287.219 598.343 285.704 599.026 283.784H603.442C602.887 285.661 601.991 287.368 600.754 288.904C599.559 290.44 598.023 291.635 596.146 292.488C594.269 293.341 592.093 293.768 589.618 293.768Z" fill="white"/>
<defs>
<filter id="filter0_d_66_568" x="250" y="48" width="111" height="111" filterUnits="userSpaceOnUse" color-interpolation-filters="sRGB">
<feFlood flood-opacity="0" result="BackgroundImageFix"/>
<feColorMatrix in="SourceAlpha" type="matrix" values="0 0 0 0 0 0 0 0 0 0 0 0 0 0 0 0 0 0 127 0" result="hardAlpha"/>
<feOffset dy="4"/>
<feGaussianBlur stdDeviation="2"/>
<feComposite in2="hardAlpha" operator="out"/>
<feColorMatrix type="matrix" values="0 0 0 0 0 0 0 0 0 0 0 0 0 0 0 0 0 0 0.25 0"/>
<feBlend mode="normal" in2="BackgroundImageFix" result="effect1_dropShadow_66_568"/>
<feBlend mode="normal" in="SourceGraphic" in2="effect1_dropShadow_66_568" result="shape"/>
</filter>
<filter id="filter1_d_66_568" x="265" y="63" width="81" height="81" filterUnits="userSpaceOnUse" color-interpolation-filters="sRGB">
<feFlood flood-opacity="0" result="BackgroundImageFix"/>
<feColorMatrix in="SourceAlpha" type="matrix" values="0 0 0 0 0 0 0 0 0 0 0 0 0 0 0 0 0 0 127 0" result="hardAlpha"/>
<feOffset dy="4"/>
<feGaussianBlur stdDeviation="2"/>
<feComposite in2="hardAlpha" operator="out"/>
<feColorMatrix type="matrix" values="0 0 0 0 0 0 0 0 0 0 0 0 0 0 0 0 0 0 0.25 0"/>
<feBlend mode="normal" in2="BackgroundImageFix" result="effect1_dropShadow_66_568"/>
<feBlend mode="normal" in="SourceGraphic" in2="effect1_dropShadow_66_568" result="shape"/>
</filter>
</defs>
</svg>
